<svg width="42" height="60" viewBox="0 0 42 60" fill="none" xmlns="http://www.w3.org/2000/svg">
<path fill-rule="evenodd" clip-rule="evenodd" d="M36.14 37.3349L35.614 36.0819L34.812 34.3019L34.778 34.2679C32.3409 28.9569 29.7748 23.706 27.082 18.5199L26.974 18.3199L26.144 16.6499C25.8008 15.9662 25.3804 15.324 24.891 14.7359C24.3585 14.0649 23.6799 13.5243 22.9068 13.1554C22.1337 12.7864 21.2866 12.5988 20.43 12.6069C19.5792 12.6098 18.7393 12.7981 17.9689 13.1589C17.1984 13.5197 16.5159 14.0443 15.969 14.6959C15.4914 15.2926 15.0718 15.9335 14.716 16.6099L13.773 18.4559C11.078 23.6859 8.476 28.9759 6.071 34.2039L6.037 34.2709C5.837 34.8439 5.552 35.4309 5.269 36.0569C5.09366 36.4389 4.91833 36.8566 4.743 37.3099C4.29842 38.5103 4.1549 39.8013 4.325 41.0699C4.51251 42.344 5.02868 43.5472 5.82266 44.5611C6.61665 45.5749 7.66105 46.3645 8.853 46.8519C9.74674 47.2276 10.7075 47.4178 11.677 47.4109C11.979 47.4059 12.2805 47.3835 12.58 47.3439C13.8093 47.1872 14.9943 46.7838 16.064 46.1579C17.6887 45.189 19.147 43.965 20.383 42.5329C21.6268 43.9571 23.0837 45.18 24.702 46.1579C25.7716 46.7839 26.9566 47.1874 28.186 47.3439C28.4855 47.3835 28.787 47.4058 29.089 47.4109C30.0588 47.4211 31.0202 47.2307 31.913 46.8519C33.1049 46.3645 34.1493 45.5749 34.9433 44.5611C35.7373 43.5472 36.2535 42.344 36.441 41.0699C36.6977 39.8234 36.5876 38.5292 36.124 37.3439L36.14 37.3349ZM20.432 39.1479C18.552 36.7759 17.332 34.5519 16.914 32.6649C16.7433 31.9706 16.7066 31.25 16.806 30.5419C16.875 30.0175 17.0665 29.5166 17.365 29.0799C17.7142 28.5955 18.1754 28.2028 18.7093 27.9353C19.2432 27.6678 19.8339 27.5335 20.431 27.5439C21.0294 27.5209 21.624 27.649 22.1599 27.9164C22.6957 28.1838 23.1556 28.5819 23.497 29.0739C23.7955 29.5106 23.987 30.0115 24.056 30.5359C24.1559 31.244 24.1192 31.9647 23.948 32.6589C23.53 34.5049 22.311 36.7019 20.43 39.1419L20.432 39.1479ZM34.334 40.7849C34.203 41.6769 33.8412 42.5192 33.2844 43.2284C32.7277 43.9375 31.9954 44.4889 31.16 44.8279C30.3268 45.1803 29.417 45.3126 28.518 45.2119C27.5826 45.0962 26.6812 44.7888 25.87 44.3089C24.3748 43.4062 23.0346 42.2686 21.901 40.9399C24.199 38.1159 25.594 35.5399 26.119 33.2379C26.3457 32.2668 26.4049 31.264 26.294 30.2729C26.1646 29.4207 25.842 28.6094 25.351 27.9009C24.7988 27.1129 24.0614 26.4728 23.2036 26.0368C22.3458 25.6009 21.394 25.3825 20.432 25.4009C19.4749 25.3887 18.5289 25.6071 17.6739 26.0375C16.819 26.4679 16.0802 27.0978 15.52 27.8739C15.029 28.5824 14.7064 29.3937 14.577 30.2459C14.4297 31.2357 14.4893 32.2453 14.752 33.2109C15.278 35.5089 16.706 38.1229 18.97 40.9469C17.8443 42.2836 16.5028 43.4224 15.001 44.3159C14.1898 44.8062 13.2858 45.1229 12.346 45.2459C11.448 45.3456 10.5392 45.2255 9.698 44.8959C8.8626 44.5569 8.13028 44.0055 7.57355 43.2964C7.01683 42.5872 6.65503 41.7449 6.524 40.8529C6.41384 39.9422 6.52251 39.0183 6.841 38.1579C6.949 37.8079 7.117 37.4839 7.291 37.0459C7.534 36.4859 7.817 35.8939 8.093 35.3009L8.127 35.2339C10.533 30.0339 13.107 24.7489 15.797 19.5869L15.897 19.3369L16.733 17.7329C17.0043 17.18 17.3414 16.6619 17.737 16.1899C18.0805 15.7863 18.5076 15.4621 18.9887 15.2398C19.4698 15.0175 19.9935 14.9024 20.5235 14.9024C21.0535 14.9024 21.5772 15.0175 22.0583 15.2398C22.5394 15.4621 22.9665 15.7863 23.31 16.1899C23.6858 16.6608 24.0046 17.1743 24.26 17.7199L25.096 19.3239L25.196 19.5239C27.844 24.7199 30.432 30.0089 32.831 35.2039V35.2379C33.107 35.7979 33.357 36.4239 33.633 36.9829C33.808 37.4009 33.983 37.7509 34.083 38.0949C34.3723 38.9622 34.4555 39.8849 34.326 40.7899L34.334 40.7849Z" fill="#FF5A5F"/>
</svg>
