<svg width="198" height="62" viewBox="0 0 198 62" fill="none" xmlns="http://www.w3.org/2000/svg">
<path fill-rule="evenodd" clip-rule="evenodd" d="M104.72 15.5892C104.72 16.3869 104.486 17.1666 104.046 17.8299C103.606 18.4931 102.982 19.01 102.251 19.3153C101.52 19.6205 100.715 19.7004 99.9393 19.5448C99.1632 19.3892 98.4504 19.005 97.8909 18.441C97.3315 17.877 96.9504 17.1584 96.7961 16.376C96.6417 15.5937 96.7209 14.7828 97.0237 14.0459C97.3265 13.3089 97.8393 12.6791 98.4972 12.2359C99.155 11.7927 99.9285 11.5562 100.72 11.5562C101.246 11.5546 101.767 11.6578 102.253 11.8598C102.739 12.0619 103.18 12.359 103.552 12.7338C103.924 13.1086 104.219 13.5539 104.419 14.0439C104.62 14.534 104.722 15.0591 104.72 15.5892ZM88.2163 23.6945V24.692C87.4613 23.8685 86.538 23.2199 85.5103 22.7909C84.4825 22.3618 83.3747 22.1627 82.2632 22.207C80.6705 22.1897 79.0908 22.498 77.6195 23.1132C76.1483 23.7285 74.8159 24.638 73.703 25.7867C72.5901 26.9355 71.7197 28.2997 71.1443 29.797C70.5689 31.2943 70.3004 32.8937 70.3552 34.4985C70.2988 36.1033 70.5656 37.7029 71.1394 39.2009C71.7133 40.6988 72.5824 42.064 73.6941 43.2139C74.8059 44.3638 76.1373 45.2747 77.608 45.8915C79.0786 46.5082 80.658 46.8181 82.2508 46.8024C83.3688 46.8543 84.4841 46.6525 85.5144 46.2119C86.5447 45.7713 87.4638 45.1032 88.2039 44.2569V45.3132C88.2022 45.4271 88.2233 45.5402 88.2658 45.6458C88.3082 45.7514 88.3713 45.8473 88.4512 45.9279C88.5311 46.0084 88.6263 46.072 88.731 46.1148C88.8357 46.1577 88.9479 46.1789 89.0609 46.1772H94.051V22.7895H89.1033C88.878 22.7958 88.6636 22.8889 88.5042 23.0496C88.3449 23.2102 88.2526 23.4264 88.2463 23.6535L88.2163 23.6945ZM88.2163 38.6509C87.645 39.4443 86.8943 40.0891 86.0265 40.5318C85.1587 40.9745 84.1988 41.2023 83.2262 41.1965C79.2858 41.1965 76.273 38.7114 76.273 34.4985C76.273 30.2856 79.2858 27.8005 83.2262 27.8005C84.1964 27.8079 85.1518 28.0416 86.0175 28.4832C86.8832 28.9248 87.6358 29.5624 88.2163 30.3461V38.6651V38.6509ZM97.7582 22.8287H103.713V46.1647H97.7582V22.7895V22.8287ZM186.051 22.2053C184.94 22.1609 183.832 22.3601 182.804 22.7891C181.776 23.2181 180.853 23.8667 180.098 24.6903V11.5936H174.143V46.1611H179.131C179.357 46.1549 179.571 46.0618 179.731 45.9011C179.89 45.7405 179.982 45.5243 179.988 45.2972V44.2408C180.734 45.0775 181.652 45.7392 182.678 46.179C183.705 46.6189 184.814 46.8262 185.929 46.7864C187.521 46.7987 189.098 46.487 190.567 45.87C192.036 45.253 193.366 44.3434 194.478 43.1956C195.59 42.0479 196.461 40.6857 197.038 39.1907C197.615 37.6956 197.887 36.0985 197.837 34.4949C197.888 32.891 197.618 31.2932 197.041 29.7975C196.464 28.3018 195.594 26.939 194.481 25.7909C193.369 24.6429 192.038 23.7333 190.569 23.1168C189.099 22.5003 187.521 22.1897 185.929 22.2035L186.051 22.2053ZM185.046 41.1377C184.072 41.1516 183.109 40.9272 182.24 40.4839C181.371 40.0405 180.621 39.3914 180.056 38.5921V30.2713C180.655 29.5086 181.412 28.8861 182.274 28.4467C183.135 28.0072 184.081 27.7612 185.046 27.7257C188.986 27.7257 191.999 30.2107 191.999 34.4237C191.999 38.6366 188.986 41.1216 185.046 41.1216V41.1377ZM171.125 32.327V46.2271H165.17V33.0217C165.17 29.1686 163.979 27.6206 160.611 27.6206C159.704 27.6525 158.813 27.8725 157.993 28.2669C157.174 28.6614 156.444 29.2218 155.849 29.9132V46.1665H149.894V22.7895H154.573C154.799 22.7958 155.013 22.8889 155.172 23.0496C155.332 23.2102 155.424 23.4264 155.43 23.6535V24.6511C156.252 23.8263 157.233 23.1802 158.312 22.7528C159.391 22.3254 160.546 22.1257 161.705 22.1661C164.06 22.0783 166.363 22.8735 168.171 24.3981C170.266 26.1385 171.063 28.3706 171.063 32.2843L171.125 32.327ZM135.608 22.2088C134.496 22.1644 133.389 22.3636 132.361 22.7926C131.333 23.2217 130.41 23.8703 129.655 24.6938V11.5972H123.7V46.1611H128.69C128.915 46.1549 129.13 46.0618 129.289 45.9011C129.448 45.7405 129.541 45.5243 129.547 45.2972V44.2408C130.293 45.0792 131.214 45.7418 132.242 46.1817C133.271 46.6216 134.383 46.828 135.5 46.7864C137.091 46.7987 138.669 46.487 140.138 45.87C141.607 45.253 142.937 44.3434 144.049 43.1956C145.161 42.0479 146.032 40.6857 146.609 39.1907C147.186 37.6956 147.458 36.0985 147.408 34.4949C147.47 32.8884 147.206 31.286 146.633 29.7856C146.06 28.2852 145.19 26.9182 144.076 25.768C142.961 24.6178 141.626 23.7086 140.152 23.0957C138.677 22.4829 137.095 22.1793 135.5 22.2035L135.608 22.2088ZM134.615 41.1377C133.641 41.1516 132.678 40.9272 131.809 40.4839C130.94 40.0405 130.19 39.3914 129.625 38.5921V30.2713C130.225 29.5086 130.981 28.8861 131.843 28.4467C132.704 28.0072 133.65 27.7612 134.615 27.7257C138.555 27.7257 141.568 30.2107 141.568 34.4237C141.568 38.6366 138.555 41.1216 134.615 41.1216V41.1377ZM118.57 22.2017C119.485 22.1724 120.399 22.2774 121.284 22.5134V28.0357C121.284 28.0357 116.337 26.3915 113.283 29.8954V46.2217H107.328V22.7895H112.318C112.544 22.7958 112.758 22.8889 112.918 23.0496C113.077 23.2102 113.169 23.4264 113.176 23.6535V24.6511C114.587 23.1723 116.501 22.2849 118.533 22.1661L118.57 22.2017ZM57.1838 44.0502L56.2544 41.8182L54.8372 38.6473L54.7771 38.5868C50.4707 29.1258 45.9363 19.772 41.1781 10.5337L40.9873 10.1774L39.5207 7.20253C38.9142 5.98453 38.1713 4.84057 37.3066 3.79299C36.3657 2.59766 35.1665 1.63466 33.8004 0.977418C32.4344 0.320173 30.9375 -0.0139737 29.4239 0.000447721C27.9206 0.00545874 26.4364 0.341021 25.075 0.983735C23.7136 1.62645 22.5076 2.56084 21.5412 3.72173C20.6973 4.78467 19.9559 5.92636 19.3271 7.13128L17.6608 10.4197C12.8987 19.7363 8.30088 29.1597 4.05119 38.4727L3.99111 38.5921C3.63771 39.6128 3.13411 40.6585 2.63404 41.7736C2.32422 42.4541 2.0144 43.1981 1.70458 44.0057C0.919015 46.1439 0.665407 48.4437 0.965968 50.7036C1.29731 52.9732 2.20939 55.1166 3.61238 56.9226C5.01537 58.7287 6.86085 60.1352 8.96705 61.0035C10.5463 61.6728 12.244 62.0116 13.9571 61.9993C14.4908 61.9903 15.0236 61.9504 15.5527 61.88C17.725 61.6007 19.8189 60.8821 21.7091 59.7673C24.58 58.0412 27.1568 55.8609 29.3408 53.3098C31.5386 55.8468 34.1131 58.0251 36.9726 59.7673C38.8626 60.8824 40.9566 61.601 43.1289 61.88C43.6581 61.9504 44.1908 61.9902 44.7245 61.9993C46.4382 62.0173 48.137 61.6783 49.7146 61.0035C51.8208 60.1352 53.6663 58.7287 55.0693 56.9226C56.4723 55.1166 57.3844 52.9732 57.7157 50.7036C58.1692 48.4831 57.9747 46.1776 57.1556 44.0663L57.1838 44.0502ZM29.4274 47.2798C26.1054 43.0544 23.9496 39.0927 23.211 35.7312C22.9093 34.4943 22.8446 33.2107 23.0202 31.9494C23.1421 31.0151 23.4805 30.1229 24.008 29.345C24.6249 28.482 25.44 27.7824 26.3834 27.306C27.3268 26.8295 28.3706 26.5903 29.4256 26.6088C30.4831 26.5678 31.5337 26.796 32.4806 27.2723C33.4275 27.7487 34.2401 28.4578 34.8433 29.3343C35.3708 30.1122 35.7092 31.0044 35.8311 31.9387C36.0076 33.2 35.9428 34.4838 35.6403 35.7205C34.9017 39.0089 32.7477 42.9226 29.4239 47.2692L29.4274 47.2798ZM53.9926 50.196C53.761 51.7849 53.1217 53.2854 52.138 54.5486C51.1542 55.8119 49.8602 56.7941 48.384 57.398C46.9118 58.0258 45.3042 58.2613 43.7156 58.0821C42.0627 57.876 40.4699 57.3284 39.0365 56.4735C36.3944 54.8654 34.0263 52.839 32.0232 50.4721C36.0838 45.4415 38.5488 40.8527 39.4765 36.7519C39.877 35.0219 39.9816 33.2357 39.7857 31.4702C39.557 29.9521 38.9871 28.5068 38.1194 27.2448C37.1437 25.841 35.8407 24.7006 34.3249 23.924C32.8092 23.1475 31.1273 22.7585 29.4274 22.7913C27.7362 22.7696 26.0646 23.1585 24.5539 23.9252C23.0432 24.692 21.7377 25.8141 20.7478 27.1967C19.8801 28.4587 19.3102 29.904 19.0815 31.4221C18.8212 33.1853 18.9265 34.9837 19.3907 36.7038C20.3202 40.7974 22.8435 45.4539 26.844 50.4845C24.8549 52.8656 22.4844 54.8942 19.8307 56.486C18.3974 57.3593 16.7999 57.9234 15.1393 58.1426C13.5525 58.3203 11.9467 58.1063 10.4602 57.5192C8.98403 56.9152 7.68999 55.933 6.70625 54.6697C5.72251 53.4065 5.0832 51.9061 4.85165 50.3171C4.65701 48.6947 4.84903 47.0489 5.4118 45.5163C5.60264 44.8928 5.8995 44.3156 6.20696 43.5354C6.63635 42.5378 7.13642 41.4833 7.62411 40.4269L7.68419 40.3076C11.9357 31.0444 16.484 21.6299 21.2373 12.4344L21.414 11.9891L22.8912 9.13176C23.3705 8.14682 23.9662 7.22391 24.6653 6.3831C25.2723 5.66411 26.0269 5.08662 26.8771 4.6906C27.7272 4.29457 28.6526 4.08947 29.5891 4.08947C30.5256 4.08947 31.451 4.29457 32.3011 4.6906C33.1513 5.08662 33.9059 5.66411 34.5129 6.3831C35.1769 7.22185 35.7403 8.13668 36.1916 9.1086L37.6688 11.9659L37.8455 12.3222C42.5246 21.5782 47.0977 30.9999 51.3367 40.2541V40.3147C51.8244 41.3122 52.2662 42.4274 52.7539 43.4232C53.0631 44.1678 53.3724 44.7913 53.5491 45.4041C54.0603 46.949 54.2073 48.5927 53.9784 50.2049L53.9926 50.196Z" fill="#FF5A60"/>
</svg>
